<svg width="869" height="604" viewBox="0 0 869 604" version="1.1" xmlns="http://www.w3.org/2000/svg" xmlns:xlink="http://www.w3.org/1999/xlink">
<title>Group 2</title>
<desc>Created using Figma</desc>
<g id="Canvas" transform="translate(330 -4077)">
<g id="Group 2">
<g id="Line">
<use xlink:href="#path0_stroke" transform="matrix(-1 8.01872e-17 -1.70068e-16 -1 199.366 4651)" fill="#FFFFFF"/>
</g>
<g id="Vector">
<use xlink:href="#path1_stroke" transform="translate(199.125 4627)" fill="#FFFFFF"/>
</g>
<g id="Line 3">
<use xlink:href="#path2_stroke" transform="matrix(-4.37114e-08 -1 1 -4.37114e-08 -327 4654)" fill="#FFFFFF"/>
</g>
</g>
</g>
<defs>
<path id="path0_stroke" d="M 0 0L 529.366 0L 529.366 -3L 0 -3L 0 0Z"/>
<path id="path1_stroke" d="M 48.9992 25.685L 48.9992 27.185L 49.6696 27.185L 50.1167 26.6857L 48.9992 25.685ZM 71.9989 0L 71.9989 -1.5L 71.3286 -1.5L 70.8814 -1.00063L 71.9989 0ZM 77.9988 0L 79.2889 -0.765339L 78.853 -1.5L 77.9988 -1.5L 77.9988 0ZM 107.998 50.5674L 106.708 51.3328L 107.919 53.3737L 109.243 51.4044L 107.998 50.5674ZM 141.998 0L 141.998 -1.5L 141.199 -1.5L 140.753 -0.836949L 141.998 0ZM 149.998 0L 151.288 -0.765339L 150.852 -1.5L 149.998 -1.5L 149.998 0ZM 179.997 50.5674L 178.707 51.3328L 179.866 53.2866L 181.208 51.4532L 179.997 50.5674ZM 216.997 0L 216.997 -1.5L 216.236 -1.5L 215.786 -0.885747L 216.997 0ZM 222.997 0L 224.287 -0.765339L 223.851 -1.5L 222.997 -1.5L 222.997 0ZM 252.996 50.5674L 251.706 51.3328L 252.756 53.1032L 254.12 51.561L 252.996 50.5674ZM 274.996 25.685L 274.996 24.185L 274.32 24.185L 273.872 24.6915L 274.996 25.685ZM 0 27.185L 48.9992 27.185L 48.9992 24.185L 0 24.185L 0 27.185ZM 50.1167 26.6857L 73.1164 1.00063L 70.8814 -1.00063L 47.8818 24.6844L 50.1167 26.6857ZM 71.9989 1.5L 77.9988 1.5L 77.9988 -1.5L 71.9989 -1.5L 71.9989 1.5ZM 76.7087 0.765339L 106.708 51.3328L 109.288 49.8021L 79.2889 -0.765339L 76.7087 0.765339ZM 109.243 51.4044L 143.243 0.836949L 140.753 -0.836949L 106.754 49.7305L 109.243 51.4044ZM 141.998 1.5L 149.998 1.5L 149.998 -1.5L 141.998 -1.5L 141.998 1.5ZM 148.708 0.765339L 178.707 51.3328L 181.287 49.8021L 151.288 -0.765339L 148.708 0.765339ZM 181.208 51.4532L 218.207 0.885747L 215.786 -0.885747L 178.787 49.6817L 181.208 51.4532ZM 216.997 1.5L 222.997 1.5L 222.997 -1.5L 216.997 -1.5L 216.997 1.5ZM 221.706 0.765339L 251.706 51.3328L 254.286 49.8021L 224.287 -0.765339L 221.706 0.765339ZM 254.12 51.561L 276.119 26.6786L 273.872 24.6915L 251.872 49.5739L 254.12 51.561ZM 274.996 27.185L 338.995 27.185L 338.995 24.185L 274.996 24.185L 274.996 27.185Z"/>
<path id="path2_stroke" d="M 0 0L 577 0L 577 -3L 0 -3L 0 0Z"/>
</defs>
</svg>
